<svg width="1200" height="166" viewBox="0 0 1200 166" fill="none" xmlns="http://www.w3.org/2000/svg">
<path d="M688.568 21.3956H694.225V52.3227C694.225 55.5158 693.472 58.3667 691.967 60.8756C690.477 63.3692 688.371 65.3383 685.649 66.7827C682.927 68.212 679.734 68.9267 676.07 68.9267C672.405 68.9267 669.212 68.212 666.491 66.7827C663.769 65.3383 661.655 63.3692 660.15 60.8756C658.66 58.3667 657.915 55.5158 657.915 52.3227V21.3956H663.571V51.8666C663.571 54.1473 664.073 56.1772 665.077 57.9562C666.08 59.72 667.509 61.1113 669.364 62.13C671.235 63.1335 673.47 63.6353 676.07 63.6353C678.67 63.6353 680.905 63.1335 682.775 62.13C684.645 61.1113 686.075 59.72 687.063 57.9562C688.067 56.1772 688.568 54.1473 688.568 51.8666V21.3956Z" fill="#0A70A3"/>
<path d="M710.173 47.0314V68.1056H704.79V33.0731H709.99V38.547H710.447C711.268 36.768 712.514 35.3387 714.187 34.2591C715.86 33.1644 718.019 32.617 720.664 32.617C723.036 32.617 725.112 33.1035 726.891 34.0767C728.67 35.0346 730.053 36.4943 731.042 38.4557C732.03 40.402 732.524 42.8652 732.524 45.8454V68.1056H727.142V46.2103C727.142 43.4582 726.427 41.3143 724.998 39.7786C723.568 38.2276 721.607 37.4522 719.113 37.4522C717.395 37.4522 715.86 37.8247 714.506 38.5698C713.168 39.3148 712.111 40.402 711.336 41.8312C710.561 43.2605 710.173 44.9939 710.173 47.0314Z" fill="#0A70A3"/>
<path d="M742.36 68.1056V33.0731H747.743V68.1056H742.36ZM745.097 27.2344C744.048 27.2344 743.143 26.8771 742.383 26.1624C741.638 25.4478 741.265 24.5887 741.265 23.5852C741.265 22.5816 741.638 21.7226 742.383 21.0079C743.143 20.2933 744.048 19.936 745.097 19.936C746.146 19.936 747.043 20.2933 747.788 21.0079C748.548 21.7226 748.929 22.5816 748.929 23.5852C748.929 24.5887 748.548 25.4478 747.788 26.1624C747.043 26.8771 746.146 27.2344 745.097 27.2344Z" fill="#0A70A3"/>
<path d="M786.248 33.0731L773.293 68.1056H767.819L754.864 33.0731H760.703L770.373 60.9896H770.738L780.409 33.0731H786.248Z" fill="#0A70A3"/>
<path d="M806.786 68.8354C803.41 68.8354 800.498 68.0904 798.05 66.6003C795.618 65.095 793.74 62.9967 792.417 60.3054C791.109 57.5989 790.456 54.4514 790.456 50.8631C790.456 47.2747 791.109 44.112 792.417 41.3751C793.74 38.623 795.58 36.4791 797.936 34.9434C800.308 33.3924 803.076 32.617 806.238 32.617C808.063 32.617 809.865 32.9211 811.644 33.5293C813.423 34.1375 815.042 35.1258 816.502 36.4943C817.961 37.8475 819.125 39.6417 819.991 41.8769C820.858 44.112 821.291 46.8641 821.291 50.1332V52.414H794.287V47.7612H815.818C815.818 45.7846 815.422 44.0208 814.632 42.4699C813.856 40.9189 812.746 39.6949 811.302 38.7978C809.872 37.9007 808.185 37.4522 806.238 37.4522C804.094 37.4522 802.239 37.9844 800.673 39.0487C799.122 40.0979 797.929 41.4663 797.093 43.1541C796.256 44.8418 795.838 46.6512 795.838 48.5823V51.6841C795.838 54.3298 796.294 56.5725 797.207 58.4124C798.134 60.237 799.419 61.6282 801.061 62.5862C802.703 63.5289 804.611 64.0002 806.786 64.0002C808.2 64.0002 809.477 63.8026 810.617 63.4072C811.773 62.9967 812.769 62.3885 813.605 61.5826C814.441 60.7615 815.088 59.7428 815.544 58.5264L820.744 59.9861C820.197 61.7499 819.277 63.3008 817.984 64.6388C816.692 65.9617 815.095 66.9956 813.195 67.7407C811.294 68.4705 809.158 68.8354 806.786 68.8354Z" fill="#0A70A3"/>
<path d="M829.479 68.1056V33.0731H834.679V38.3645H835.044C835.683 36.6311 836.839 35.2246 838.511 34.1451C840.184 33.0655 842.069 32.5257 844.167 32.5257C844.563 32.5257 845.057 32.5334 845.65 32.5486C846.243 32.5638 846.691 32.5866 846.996 32.617V38.0908C846.813 38.0452 846.395 37.9768 845.741 37.8855C845.103 37.7791 844.426 37.7259 843.711 37.7259C842.008 37.7259 840.488 38.0832 839.15 38.7978C837.827 39.4973 836.778 40.4704 836.002 41.7172C835.242 42.9488 834.862 44.3553 834.862 45.9366V68.1056H829.479Z" fill="#0A70A3"/>
<path d="M878.191 40.9189L873.355 42.2874C873.051 41.4815 872.603 40.6985 872.01 39.9382C871.432 39.1628 870.641 38.5241 869.638 38.0224C868.634 37.5206 867.349 37.2697 865.783 37.2697C863.639 37.2697 861.853 37.7639 860.423 38.7522C859.009 39.7253 858.302 40.9646 858.302 42.4699C858.302 43.8079 858.789 44.8647 859.762 45.6401C860.735 46.4156 862.256 47.0618 864.324 47.5788L869.524 48.856C872.656 49.6162 874.99 50.7794 876.526 52.3455C878.061 53.8965 878.829 55.8959 878.829 58.3439C878.829 60.351 878.251 62.1452 877.096 63.7265C875.955 65.3079 874.359 66.5547 872.306 67.467C870.254 68.3793 867.866 68.8354 865.145 68.8354C861.571 68.8354 858.614 68.06 856.273 66.5091C853.931 64.9581 852.448 62.6926 851.825 59.7124L856.934 58.4352C857.42 60.3206 858.34 61.7347 859.694 62.6774C861.062 63.6201 862.849 64.0915 865.053 64.0915C867.562 64.0915 869.554 63.5593 871.029 62.4949C872.519 61.4154 873.264 60.1229 873.264 58.6176C873.264 57.4012 872.838 56.3825 871.987 55.5614C871.135 54.7251 869.828 54.1017 868.064 53.6912L862.225 52.3227C859.017 51.5625 856.66 50.3841 855.155 48.7876C853.665 47.1758 852.92 45.1612 852.92 42.7435C852.92 40.7669 853.475 39.0183 854.585 37.4978C855.71 35.9773 857.238 34.7837 859.169 33.917C861.115 33.0503 863.32 32.617 865.783 32.617C869.25 32.617 871.972 33.3772 873.948 34.8977C875.94 36.4182 877.354 38.4253 878.191 40.9189Z" fill="#0A70A3"/>
<path d="M886.932 68.1056V33.0731H892.314V68.1056H886.932ZM889.669 27.2344C888.619 27.2344 887.715 26.8771 886.954 26.1624C886.209 25.4478 885.837 24.5887 885.837 23.5852C885.837 22.5816 886.209 21.7226 886.954 21.0079C887.715 20.2933 888.619 19.936 889.669 19.936C890.718 19.936 891.615 20.2933 892.36 21.0079C893.12 21.7226 893.5 22.5816 893.5 23.5852C893.5 24.5887 893.12 25.4478 892.36 26.1624C891.615 26.8771 890.718 27.2344 889.669 27.2344Z" fill="#0A70A3"/>
<path d="M917.408 33.0731V37.6346H899.253V33.0731H917.408ZM904.545 24.6799H909.927V58.0702C909.927 59.5908 910.148 60.7311 910.589 61.4914C911.045 62.2364 911.623 62.7382 912.322 62.9967C913.037 63.24 913.789 63.3616 914.58 63.3616C915.173 63.3616 915.66 63.3312 916.04 63.2704C916.42 63.1944 916.724 63.1335 916.952 63.0879L918.047 67.9231C917.682 68.06 917.173 68.1968 916.519 68.3337C915.865 68.4857 915.036 68.5617 914.033 68.5617C912.512 68.5617 911.022 68.2348 909.562 67.581C908.118 66.9272 906.917 65.9313 905.959 64.5932C905.016 63.2552 904.545 61.5674 904.545 59.5299V24.6799Z" fill="#0A70A3"/>
<path d="M928.972 81.2428C928.059 81.2428 927.246 81.1667 926.531 81.0147C925.817 80.8778 925.322 80.741 925.049 80.6041L926.417 75.8602C927.725 76.1947 928.88 76.3163 929.884 76.2251C930.888 76.1339 931.777 75.6853 932.552 74.8794C933.343 74.0888 934.065 72.8039 934.719 71.025L935.723 68.288L922.768 33.0731H928.607L938.277 60.9896H938.642L948.313 33.0731H954.151L939.281 73.2145C938.612 75.0239 937.783 76.5216 936.795 77.7076C935.806 78.9088 934.658 79.7983 933.351 80.3761C932.058 80.9539 930.599 81.2428 928.972 81.2428Z" fill="#0A70A3"/>
<path d="M993.551 68.8354C990.389 68.8354 987.614 68.0828 985.227 66.5775C982.855 65.0722 981 62.9663 979.662 60.2598C978.339 57.5533 977.677 54.3906 977.677 50.7718C977.677 47.1226 978.339 43.9371 979.662 41.2154C981 38.4937 982.855 36.3802 985.227 34.8749C987.614 33.3696 990.389 32.617 993.551 32.617C996.714 32.617 999.481 33.3696 1001.85 34.8749C1004.24 36.3802 1006.1 38.4937 1007.42 41.2154C1008.76 43.9371 1009.43 47.1226 1009.43 50.7718C1009.43 54.3906 1008.76 57.5533 1007.42 60.2598C1006.1 62.9663 1004.24 65.0722 1001.85 66.5775C999.481 68.0828 996.714 68.8354 993.551 68.8354ZM993.551 64.0002C995.954 64.0002 997.93 63.3844 999.481 62.1528C1001.03 60.9212 1002.18 59.3019 1002.93 57.2948C1003.67 55.2877 1004.04 53.1134 1004.04 50.7718C1004.04 48.4302 1003.67 46.2483 1002.93 44.226C1002.18 42.2038 1001.03 40.5692 999.481 39.3224C997.93 38.0756 995.954 37.4522 993.551 37.4522C991.149 37.4522 989.172 38.0756 987.621 39.3224C986.071 40.5692 984.923 42.2038 984.177 44.226C983.432 46.2483 983.06 48.4302 983.06 50.7718C983.06 53.1134 983.432 55.2877 984.177 57.2948C984.923 59.3019 986.071 60.9212 987.621 62.1528C989.172 63.3844 991.149 64.0002 993.551 64.0002Z" fill="#0A70A3"/>
<path d="M1033.24 33.0731V37.6346H1014.36V33.0731H1033.24ZM1020.01 68.1056V28.2379C1020.01 26.2309 1020.49 24.5583 1021.43 23.2203C1022.37 21.8822 1023.59 20.8787 1025.1 20.2096C1026.61 19.5406 1028.19 19.2061 1029.87 19.2061C1031.19 19.2061 1032.27 19.3126 1033.11 19.5254C1033.94 19.7383 1034.57 19.936 1034.98 20.1184L1033.42 24.7712C1033.15 24.6799 1032.77 24.5659 1032.28 24.4291C1031.81 24.2922 1031.19 24.2238 1030.41 24.2238C1028.64 24.2238 1027.35 24.6723 1026.56 25.5694C1025.78 26.4665 1025.4 27.7818 1025.4 29.5151V68.1056H1020.01Z" fill="#0A70A3"/>
<path d="M1059.58 68.1056V21.3956H1075.36C1079.01 21.3956 1082.01 22.0191 1084.35 23.2659C1086.69 24.4975 1088.42 26.1928 1089.55 28.352C1090.67 30.5111 1091.24 32.9667 1091.24 35.7188C1091.24 38.4709 1090.67 40.9113 1089.55 43.04C1088.42 45.1688 1086.7 46.8413 1084.37 48.0577C1082.04 49.2589 1079.07 49.8595 1075.45 49.8595H1062.68V44.7506H1075.27C1077.76 44.7506 1079.77 44.3857 1081.29 43.6559C1082.83 42.926 1083.94 41.8921 1084.62 40.554C1085.32 39.2008 1085.67 37.589 1085.67 35.7188C1085.67 33.8486 1085.32 32.214 1084.62 30.8152C1083.92 29.4163 1082.81 28.3368 1081.27 27.5765C1079.73 26.801 1077.7 26.4133 1075.18 26.4133H1065.24V68.1056H1059.58ZM1081.57 47.1226L1093.06 68.1056H1086.49L1075.18 47.1226H1081.57Z" fill="#0A70A3"/>
<path d="M1122.01 53.7824V33.0731H1127.39V68.1056H1122.01V62.1756H1121.64C1120.82 63.9546 1119.55 65.4675 1117.81 66.7143C1116.08 67.9459 1113.89 68.5617 1111.24 68.5617C1109.05 68.5617 1107.11 68.0828 1105.41 67.1249C1103.7 66.1517 1102.36 64.692 1101.39 62.7458C1100.42 60.7843 1099.93 58.3135 1099.93 55.3333V33.0731H1105.31V54.9684C1105.31 57.5229 1106.03 59.5603 1107.46 61.0809C1108.9 62.6014 1110.74 63.3616 1112.98 63.3616C1114.32 63.3616 1115.68 63.0195 1117.06 62.3353C1118.46 61.651 1119.63 60.6019 1120.57 59.1878C1121.53 57.7737 1122.01 55.972 1122.01 53.7824Z" fill="#0A70A3"/>
<path d="M1162.07 40.9189L1157.23 42.2874C1156.93 41.4815 1156.48 40.6985 1155.88 39.9382C1155.31 39.1628 1154.52 38.5241 1153.51 38.0224C1152.51 37.5206 1151.22 37.2697 1149.66 37.2697C1147.51 37.2697 1145.73 37.7639 1144.3 38.7522C1142.88 39.7253 1142.18 40.9646 1142.18 42.4699C1142.18 43.8079 1142.66 44.8647 1143.64 45.6401C1144.61 46.4156 1146.13 47.0618 1148.2 47.5788L1153.4 48.856C1156.53 49.6162 1158.86 50.7794 1160.4 52.3455C1161.94 53.8965 1162.7 55.8959 1162.7 58.3439C1162.7 60.351 1162.13 62.1452 1160.97 63.7265C1159.83 65.3079 1158.23 66.5547 1156.18 67.467C1154.13 68.3793 1151.74 68.8354 1149.02 68.8354C1145.45 68.8354 1142.49 68.06 1140.15 66.5091C1137.81 64.9581 1136.32 62.6926 1135.7 59.7124L1140.81 58.4352C1141.3 60.3206 1142.22 61.7347 1143.57 62.6774C1144.94 63.6201 1146.72 64.0915 1148.93 64.0915C1151.44 64.0915 1153.43 63.5593 1154.9 62.4949C1156.39 61.4154 1157.14 60.1229 1157.14 58.6176C1157.14 57.4012 1156.71 56.3825 1155.86 55.5614C1155.01 54.7251 1153.7 54.1017 1151.94 53.6912L1146.1 52.3227C1142.89 51.5625 1140.53 50.3841 1139.03 48.7876C1137.54 47.1758 1136.79 45.1612 1136.79 42.7435C1136.79 40.7669 1137.35 39.0183 1138.46 37.4978C1139.58 35.9773 1141.11 34.7837 1143.04 33.917C1144.99 33.0503 1147.19 32.617 1149.66 32.617C1153.12 32.617 1155.85 33.3772 1157.82 34.8977C1159.81 36.4182 1161.23 38.4253 1162.07 40.9189Z" fill="#0A70A3"/>
<path d="M1185.49 68.8354C1182.12 68.8354 1179.21 68.0904 1176.76 66.6003C1174.33 65.095 1172.45 62.9967 1171.13 60.3054C1169.82 57.5989 1169.16 54.4514 1169.16 50.8631C1169.16 47.2747 1169.82 44.112 1171.13 41.3751C1172.45 38.623 1174.29 36.4791 1176.64 34.9434C1179.02 33.3924 1181.78 32.617 1184.95 32.617C1186.77 32.617 1188.57 32.9211 1190.35 33.5293C1192.13 34.1375 1193.75 35.1258 1195.21 36.4943C1196.67 37.8475 1197.83 39.6417 1198.7 41.8769C1199.57 44.112 1200 46.8641 1200 50.1332V52.414H1173V47.7612H1194.53C1194.53 45.7846 1194.13 44.0208 1193.34 42.4699C1192.56 40.9189 1191.45 39.6949 1190.01 38.7978C1188.58 37.9007 1186.89 37.4522 1184.95 37.4522C1182.8 37.4522 1180.95 37.9844 1179.38 39.0487C1177.83 40.0979 1176.64 41.4663 1175.8 43.1541C1174.96 44.8418 1174.55 46.6512 1174.55 48.5823V51.6841C1174.55 54.3298 1175 56.5725 1175.92 58.4124C1176.84 60.237 1178.13 61.6282 1179.77 62.5862C1181.41 63.5289 1183.32 64.0002 1185.49 64.0002C1186.91 64.0002 1188.19 63.8026 1189.33 63.4072C1190.48 62.9967 1191.48 62.3885 1192.31 61.5826C1193.15 60.7615 1193.8 59.7428 1194.25 58.5264L1199.45 59.9861C1198.91 61.7499 1197.99 63.3008 1196.69 64.6388C1195.4 65.9617 1193.8 66.9956 1191.9 67.7407C1190 68.4705 1187.87 68.8354 1185.49 68.8354Z" fill="#0A70A3"/>
<path d="M686.305 107.477H695.548C695.367 98.5187 687.729 92.1754 676.441 92.1754C665.308 92.1754 656.945 98.4411 656.971 107.814C656.971 115.426 662.382 119.801 671.107 122.054L677.14 123.607C682.862 125.057 686.642 126.844 686.668 130.96C686.642 135.491 682.344 138.52 676.078 138.52C670.072 138.52 665.411 135.828 665.023 130.261H655.573C655.961 140.799 663.806 146.728 676.156 146.728C688.869 146.728 696.247 140.385 696.273 131.038C696.247 121.847 688.661 117.652 680.687 115.762L675.716 114.519C671.366 113.484 666.654 111.645 666.706 107.218C666.732 103.231 670.305 100.305 676.311 100.305C682.033 100.305 685.813 102.972 686.305 107.477Z" fill="#0A70A3"/>
<path d="M724.281 106.157H716.436V96.6287H707.063V106.157H701.419V113.406H707.063V135.517C707.012 143 712.449 146.676 719.491 146.469C722.158 146.391 723.996 145.873 725.006 145.537L723.427 138.21C722.909 138.339 721.847 138.572 720.682 138.572C718.326 138.572 716.436 137.744 716.436 133.964V113.406H724.281V106.157Z" fill="#0A70A3"/>
<path d="M757.467 129.2C757.467 135.258 753.143 138.261 749 138.261C744.495 138.261 741.492 135.077 741.492 130.028V106.157H732.119V131.478C732.119 141.032 737.557 146.443 745.376 146.443C751.331 146.443 755.525 143.31 757.337 138.857H757.752V145.925H766.839V106.157H757.467V129.2Z" fill="#0A70A3"/>
<path d="M791.235 146.624C798.07 146.624 801.151 142.559 802.627 139.66H803.197V145.925H812.414V92.9004H803.016V112.733H802.627C801.203 109.859 798.278 105.639 791.261 105.639C782.07 105.639 774.846 112.836 774.846 126.093C774.846 139.194 781.863 146.624 791.235 146.624ZM793.85 138.935C787.662 138.935 784.4 133.498 784.4 126.041C784.4 118.636 787.61 113.328 793.85 113.328C799.883 113.328 803.197 118.325 803.197 126.041C803.197 133.756 799.831 138.935 793.85 138.935Z" fill="#0A70A3"/>
<path d="M840.007 146.702C849.276 146.702 855.646 142.171 857.303 135.258L848.551 134.274C847.283 137.64 844.176 139.401 840.137 139.401C834.078 139.401 830.065 135.413 829.988 128.604H857.691V125.73C857.691 111.775 849.302 105.639 839.515 105.639C828.123 105.639 820.693 114.002 820.693 126.274C820.693 138.753 828.02 146.702 840.007 146.702ZM830.013 122.287C830.298 117.212 834.052 112.94 839.645 112.94C845.03 112.94 848.655 116.875 848.707 122.287H830.013Z" fill="#0A70A3"/>
<path d="M874.993 122.623C874.993 116.875 878.462 113.561 883.407 113.561C888.249 113.561 891.149 116.746 891.149 122.054V145.925H900.521V120.604C900.547 111.076 895.11 105.639 886.902 105.639C880.948 105.639 876.857 108.487 875.044 112.914H874.578V106.157H865.62V145.925H874.993V122.623Z" fill="#0A70A3"/>
<path d="M929.907 106.157H922.062V96.6287H912.69V106.157H907.046V113.406H912.69V135.517C912.638 143 918.075 146.676 925.118 146.469C927.784 146.391 929.623 145.873 930.632 145.537L929.053 138.21C928.535 138.339 927.474 138.572 926.309 138.572C923.953 138.572 922.062 137.744 922.062 133.964V113.406H929.907V106.157Z" fill="#0A70A3"/>
<path d="M956.245 145.925H977.709C989.852 145.925 995.807 139.737 995.807 131.478C995.807 123.452 990.111 118.74 984.466 118.455V117.937C989.645 116.72 993.735 113.095 993.735 106.649C993.735 98.7518 988.039 92.9004 976.544 92.9004H956.245V145.925ZM965.851 137.899V122.364H976.44C982.369 122.364 986.046 125.989 986.046 130.727C986.046 134.947 983.146 137.899 976.181 137.899H965.851ZM965.851 115.451V100.823H975.56C981.204 100.823 984.13 103.801 984.13 107.891C984.13 112.552 980.35 115.451 975.353 115.451H965.851Z" fill="#0A70A3"/>
<path d="M1003.75 145.925H1013.12V122.546C1013.12 117.497 1016.93 113.924 1022.08 113.924C1023.66 113.924 1025.63 114.209 1026.43 114.468V105.846C1025.57 105.691 1024.1 105.587 1023.06 105.587C1018.51 105.587 1014.7 108.176 1013.25 112.785H1012.84V106.157H1003.75V145.925Z" fill="#0A70A3"/>
<path d="M1043.32 146.728C1049.56 146.728 1053.28 143.802 1054.99 140.462H1055.3V145.925H1064.31V119.309C1064.31 108.797 1055.74 105.639 1048.16 105.639C1039.8 105.639 1033.37 109.367 1031.3 116.617L1040.05 117.859C1040.99 115.141 1043.63 112.811 1048.21 112.811C1052.56 112.811 1054.94 115.037 1054.94 118.947V119.102C1054.94 121.795 1052.12 121.924 1045.1 122.675C1037.39 123.504 1030.01 125.808 1030.01 134.766C1030.01 142.585 1035.73 146.728 1043.32 146.728ZM1045.75 139.841C1041.84 139.841 1039.04 138.054 1039.04 134.611C1039.04 131.012 1042.18 129.51 1046.37 128.915C1048.83 128.578 1053.75 127.957 1054.97 126.973V131.659C1054.97 136.087 1051.39 139.841 1045.75 139.841Z" fill="#0A70A3"/>
<path d="M1083.11 122.623C1083.11 116.875 1086.58 113.561 1091.53 113.561C1096.37 113.561 1099.27 116.746 1099.27 122.054V145.925H1108.64V120.604C1108.67 111.076 1103.23 105.639 1095.02 105.639C1089.07 105.639 1084.98 108.487 1083.16 112.914H1082.7V106.157H1073.74V145.925H1083.11V122.623Z" fill="#0A70A3"/>
<path d="M1135.51 146.702C1145.51 146.702 1151.88 140.773 1152.55 132.332H1143.59C1142.79 136.604 1139.71 139.064 1135.59 139.064C1129.74 139.064 1125.96 134.171 1125.96 126.041C1125.96 118.015 1129.82 113.199 1135.59 113.199C1140.1 113.199 1142.87 116.099 1143.59 119.931H1152.55C1151.9 111.309 1145.17 105.639 1135.46 105.639C1123.81 105.639 1116.46 114.053 1116.46 126.196C1116.46 138.236 1123.63 146.702 1135.51 146.702Z" fill="#0A70A3"/>
<path d="M1169.62 122.623C1169.62 116.875 1173.19 113.561 1178.22 113.561C1183.13 113.561 1186.03 116.694 1186.03 122.054V145.925H1195.41V120.604C1195.41 110.998 1189.97 105.639 1181.71 105.639C1175.6 105.639 1171.72 108.409 1169.88 112.914H1169.41V92.9004H1160.25V145.925H1169.62V122.623Z" fill="#0A70A3"/>
<path d="M189.558 21.9305H224.335V147.473H189.558V21.9305Z" fill="#0A70A3"/>
<path d="M242.585 147.473V21.9305H338.217V46.2599H277.348V72.173H333.338V96.5152H277.348V123.118H338.217V147.473H242.585Z" fill="#0A70A3"/>
<path d="M357.693 147.473V21.9305H453.299V46.2599H392.469V72.173H448.433V96.5152H392.469V123.118H453.299V147.473H357.693Z" fill="#0A70A3"/>
<path d="M472.776 147.473V21.9305H568.408V46.2599H507.578V72.173H563.542V96.5152H507.578V123.118H568.408V147.473H472.776Z" fill="#0A70A3"/>
<path d="M78.0131 23.3352C83.5687 19.0185 90.542 22.6073 95.2035 26.5792C100.082 30.3084 105.178 34.5357 109.635 38.8652L110.453 39.325C122.815 50.8064 134.309 63.5522 143.747 77.0388C145.267 79.3887 146.621 82.0451 145.765 85.1614C142.624 93.0285 136.225 99.2992 130.644 106.157C118.55 119.184 105.791 131.777 91.4998 141.828C88.6136 143.871 84.7181 145.749 81.2571 144.139C70.7463 138.635 61.883 129.618 52.6749 121.406C42.0107 111.509 31.2956 99.9889 23.2113 87.9327C22.0109 86.2469 21.6661 84.1524 21.7044 81.9302C22.7517 77.7667 25.5869 74.344 28.2944 70.8319C37.8473 58.6608 49.546 47.1027 61.3722 36.5536C61.653 36.2855 62.1517 35.7107 62.5855 35.4297C67.6559 31.0363 72.7005 27.1538 78.0134 23.3352L78.0131 23.3352ZM94.2713 10.666L88.0004 1.76442C87.221 1.30464 86.2636 0.525575 85.4207 0.295697C83.5688 -0.508932 81.5638 0.461778 80.0568 1.61114L68.7029 16.4004C50.4782 38.9674 28.9075 60.0401 5.36985 76.1959C3.51805 77.6518 0.746404 79.0694 0.171709 81.4704C-0.440891 83.616 0.68251 85.404 2.01095 86.7322C20.8614 99.7207 38.8818 115.123 54.9098 132.696C57.7579 135.698 60.0695 138.661 62.8537 141.47C67.5408 147.715 73.0581 153.999 77.362 160.704C78.7158 162.122 78.9456 164.433 81.0657 165.123C82.7131 165.698 84.7565 166.093 86.3402 165.123L87.911 163.552C107.413 135.927 132.138 111.126 159.763 91.1C162.534 88.6224 167.809 87.7028 167.885 83.1179C167.693 81.0107 166.468 78.9161 164.641 77.7667L164.195 77.6898C149.98 68.0219 136.724 57.0769 124.246 44.6759L110.453 30.2698C104.859 24.0757 99.4439 17.2047 94.2716 10.6658L94.2713 10.666ZM80.0571 26.7321C85.7276 22.8752 90.8105 28.2647 95.2038 31.3553C112.19 45.0207 128.218 60.6656 140.414 78.3412C141.96 80.6144 142.649 84.1521 141.283 86.7319C138.103 92.0193 133.837 96.8341 129.789 101.738V101.994C119.686 112.747 109.035 123.794 97.5026 132.888C91.8832 136.323 86.7238 143.794 79.4824 139.158C62.9945 127.102 47.2092 112.121 33.8376 96.0549C31.5643 92.5172 28.0265 89.6309 26.443 85.6207C24.2462 80.1929 29.0994 76.2976 31.8708 72.2108C45.5106 55.3909 62.4581 38.8903 80.0571 26.732V26.7321ZM83.6329 37.8175L82.1005 42.7473L74.3994 64.8289C76.3278 65.0205 78.7159 64.8289 80.6061 65.0205V65.1994L79.4824 90.1673L79.6741 90.4354C82.139 90.6653 85.2169 90.793 87.7328 90.3585V89.9626L86.724 65.7609L86.877 64.9434L93.6584 64.8283C90.274 55.8884 86.9919 46.8591 83.8374 37.8169L83.6329 37.8175ZM57.4134 72.4024C53.0967 74.5735 46.7365 77.843 47.4389 83.7689C48.3582 87 51.8706 89.0945 54.642 90.4355C69.9676 97.1788 90.3125 97.4087 106.494 92.3768C110.491 90.8314 115.855 88.5964 116.583 83.705C116.546 79.6565 112.266 77.115 109.188 75.5697V75.3781C110.261 74.9438 111.487 74.5735 112.598 74.4458V74.3438C107.183 73.3731 101.947 71.9555 96.698 70.5634C97.707 72.8751 98.4351 75.3016 99.278 77.6898C100.862 77.1918 102.483 76.8086 104.182 76.5787C106.953 77.6515 110.913 79.1969 111.308 82.6579C111.615 85.8891 108.064 87.4727 105.829 88.7754C93.9648 93.0921 80.6063 93.5136 68.2308 90.2441C64.8081 89.1585 59.8781 87.7792 59.4566 83.4242C61.8832 77.6898 68.154 76.5021 73.403 75.11C70.7083 73.3731 67.9626 71.8278 65.3573 69.8993C62.5348 70.0654 59.9549 71.2914 57.4134 72.4025V72.4024ZM79.3291 97.2939C78.8694 106.157 78.7545 114.356 78.103 123.258C81.6024 123.564 85.5741 123.871 89.3034 123.335L88.1924 98.5582L88.0004 97.3832C85.1396 97.4852 82.4451 97.6002 79.3288 97.2942" fill="#0A70A3"/>
<path d="M112.049 147.996C108.945 147.996 106.187 150.142 106.187 153.82C106.187 157.511 108.945 159.669 112.049 159.669C115.127 159.669 117.885 157.511 117.885 153.82C117.885 150.142 115.127 147.996 112.049 147.996ZM112.049 158.316V158.303C109.737 158.316 107.872 156.515 107.872 153.82C107.872 151.151 109.737 149.363 112.049 149.363C114.309 149.363 116.225 151.151 116.225 153.82C116.225 156.515 114.309 158.315 112.049 158.315V158.316ZM114.654 152.581C114.654 151.151 113.709 150.691 112.074 150.691H109.737V156.962H111.078V154.331H111.717L113.16 156.962H114.756L113.134 154.216C113.99 154.14 114.654 153.731 114.654 152.581V152.581ZM112.266 153.258H111.078V151.738H112.023C112.534 151.738 113.224 151.789 113.224 152.441C113.224 153.143 112.879 153.258 112.266 153.258" fill="#0A70A3"/>
<rect x="605.669" y="22.0689" width="9.8084" height="125.057" fill="#0A70A3"/>
</svg>
